<svg width="400" height="82" viewBox="0 0 400 82" fill="none" xmlns="http://www.w3.org/2000/svg">
<rect width="14.8747" height="59.5041" rx="1.27154" transform="matrix(1 0 0 -1 5.15625 78.1899)" fill="#01C8F3"/>
<path d="M94.8672 19.648C94.8672 19.0789 95.2454 18.5791 95.7931 18.4244L107.892 15.0065C108.704 14.7773 109.51 15.387 109.51 16.2302V76.9185C109.51 77.6207 108.94 78.19 108.238 78.19H96.1387C95.4365 78.19 94.8672 77.6207 94.8672 76.9185V19.648Z" fill="#01C8F3"/>
<path d="M42.0389 33.561H16.9747C16.2724 33.561 15.7031 32.9917 15.7031 32.2895V19.9566C15.7031 19.2543 16.2724 18.685 16.9747 18.685H66.8974C68.2413 18.685 68.6664 20.4983 67.4626 21.0956L42.604 33.4286C42.4284 33.5157 42.235 33.561 42.0389 33.561Z" fill="#01C8F3"/>
<path d="M72.8472 63.3145H97.4706C98.1729 63.3145 98.7422 63.8837 98.7422 64.586V76.9189C98.7422 77.6212 98.1729 78.1905 97.4706 78.1905H47.9886C46.6447 78.1905 46.2196 76.3771 47.4235 75.7799L72.2821 63.4469C72.4577 63.3598 72.6511 63.3145 72.8472 63.3145Z" fill="#01C8F3"/>
<path d="M109.519 3.80936L19.3203 63.7605V71.2061L131.831 3.80936H109.519Z" fill="#01C8F3"/>
<path d="M172.084 68.8955L166.649 53.4874H144.982L139.548 68.8955H133.013L150.141 20.0572H161.49L178.618 68.8955H172.084ZM147.045 47.5717H164.586L157.019 25.9728H154.612L147.045 47.5717ZM179.158 54.4504H186.037C187.344 60.5724 192.503 63.8741 200.826 63.8741C209.562 63.8741 213.827 60.5036 213.827 55.3446C213.827 49.2914 208.324 47.9157 198.35 46.0584C189.27 44.3388 181.291 42.1376 181.222 32.989C181.222 24.3219 187.757 18.9566 198.762 18.9566C210.594 18.9566 216.372 24.8722 217.541 33.952H211.35C210.387 28.7242 207.086 24.8722 198.762 24.8722C192.021 24.8722 187.413 27.8988 187.413 32.7826C187.481 37.8041 192.572 38.9046 199.175 40.0052C210.387 41.9312 220.017 43.6509 220.017 55.207C220.017 63.599 214.79 69.9961 200.207 69.9961C189.201 69.9961 180.603 65.0435 179.158 54.4504ZM249.648 20.0572C257.421 20.0572 265.193 24.1156 265.193 35.5341C265.193 47.5717 257.421 50.9423 249.648 50.9423H233.414V68.8955H227.223V20.0572H249.648ZM248.341 45.0266C256.182 45.0266 258.659 41.037 258.659 35.5341C258.659 30.0312 256.182 26.0416 248.341 26.0416H233.414V45.0266H248.341ZM305.081 25.9728H277.566V41.1746H303.568V47.0902H277.566V62.9799H305.081V68.8955H271.376V20.0572H305.081V25.9728ZM309.88 46.8151V42.1376C309.88 26.9358 318.753 18.9566 330.447 18.9566H336.087C344.411 18.9566 352.39 24.5283 354.522 34.7775H347.919C346.268 28.9994 341.246 24.8722 333.267 24.8722C320.198 24.8722 316.071 33.2642 316.071 42.6879V46.2648C316.071 55.6885 320.198 63.8741 333.267 63.8741C341.934 63.8741 346.956 59.1966 348.331 52.8683H354.729C353.078 64.1492 344.892 69.9961 336.087 69.9961H330.447C318.753 69.9961 309.88 62.0169 309.88 46.8151ZM393.622 20.0572V25.9728H377.801V68.8955H371.61V25.9728H355.789V20.0572H393.622Z" fill="white"/>
</svg>
