<svg width="519" height="519" viewBox="0 0 519 519" fill="none" xmlns="http://www.w3.org/2000/svg">
<g filter="url(#filter0_in_4940_825)">
<path d="M0 315.063C3.14869 311.392 4.77816 306.943 4.92518 302.324C5.26823 292.308 4.26359 282.194 5.29273 272.275C6.1381 264.022 5.97883 255.634 7.38778 247.588C8.30665 242.336 8.06162 237.122 8.94374 232.004C9.81361 226.911 11.2593 221.939 14.3957 217.527C15.9885 215.278 16.7848 212.397 17.6302 209.711C18.6471 206.429 19.8478 203.609 22.7514 201.251C27.2845 197.58 32.222 197.033 37.6985 197.179C41.2025 197.264 44.7187 196.231 48.2349 196.182C50.7955 196.145 53.3684 197.033 55.9535 197.203C57.3625 197.3 58.8082 196.765 60.2416 196.522C61.0625 196.376 62.1039 195.854 62.6674 196.17C67.2618 198.722 71.7092 196.06 76.1933 195.842C77.639 195.769 79.2072 194.918 80.4079 194.018C83.3728 191.782 86.742 192.122 90.05 192.256C94.0563 192.414 98.0136 191.83 102.02 193.775C104.421 194.942 107.839 193.824 110.743 194.176C115.644 194.772 120.483 195.927 125.384 196.449C128.851 196.826 132.38 196.607 135.884 196.547C137.231 196.522 138.579 195.975 139.902 196.036C146.371 196.376 152.828 197.215 159.284 197.166C168.167 197.094 177.098 196.778 185.895 195.708C188.627 195.38 191.531 192.657 193.467 190.323C197.632 185.291 201.357 179.881 204.983 174.448C206.306 172.454 206.968 169.987 207.715 167.665C208.524 165.149 208.781 162.438 209.761 160.007C213.033 151.924 209.529 145.822 204.432 139.902C202.165 137.264 200.597 134.067 198.563 131.211C197.546 129.776 196.321 128.439 194.998 127.272C189.877 122.738 184.707 118.265 179.475 113.853C178.74 113.233 177.637 112.917 176.645 112.747C173.741 112.248 172.626 110.23 174.146 107.629C176.13 104.25 176.094 101.053 174.146 97.6858C172.504 94.8293 173.729 92.1065 176.645 90.6843C177.576 90.2224 178.593 88.7029 178.544 87.7062C178.385 83.8893 177.797 80.0968 177.392 76.3043C177.074 73.387 178.458 71.2476 180.161 68.9502C181.962 66.5313 183.016 63.5653 184.351 60.8182C187.39 54.6067 190.159 48.2615 193.503 42.2203C196.395 36.9934 199.58 31.8516 203.268 27.1717C206.282 23.3549 210.227 20.2553 213.768 16.8639C214.049 16.5965 214.515 16.329 214.883 16.3412C221.731 16.6086 225.37 11.4547 229.83 7.67432C235.453 2.94582 241.787 -0.129518 249.163 0.00419263C252.066 0.0528147 254.958 1.51148 257.849 2.31374C259.405 2.75134 260.961 3.49282 262.542 3.5536C267.271 3.72378 272.012 3.73593 276.754 3.62653C285.367 3.41989 292.497 6.94499 299.407 11.6492C304.075 14.8339 309.257 17.3015 314.281 19.9514C316.853 21.3128 319.561 22.4433 322.256 23.5737C326.508 25.3606 330.882 26.9043 335.06 28.837C340.548 31.3897 346.221 33.7479 351.22 37.0785C355.495 39.9229 360.212 41.2235 364.819 42.9861C368.605 44.4326 372.366 45.9885 376.225 47.2405C379.631 48.3466 383.147 49.1246 386.627 49.9876C391.283 51.1424 395.889 52.7105 400.618 53.2453C405.433 53.7923 408.802 56.7096 412.6 58.9705C413.715 59.6391 414.242 61.2072 415.124 62.3012C418.003 65.8627 421.042 69.3149 423.799 72.9737C426.469 76.5231 429.153 80.109 431.248 83.9987C432.179 85.7248 432.166 88.3382 431.701 90.3439C431.003 93.2734 428.528 93.9663 425.661 92.4468C420.368 89.6389 415.173 86.6365 409.819 83.9623C408.116 83.1114 406.046 82.8318 404.11 82.6616C401.598 82.455 399.013 82.9291 396.551 82.5522C392.569 81.9323 388.648 80.8748 384.716 79.9753C383.209 79.6349 381.738 79.0514 380.219 78.8934C373.113 78.1762 365.885 78.1033 358.926 76.7297C354.111 75.7816 349.406 73.5207 345.094 71.0653C338.625 67.37 332.67 62.7752 326.251 58.9949C322.489 56.7826 320.995 53.1724 318.63 49.9876C316.608 47.277 313.3 45.4901 310.458 43.4358C308.363 41.9164 305.79 40.9318 303.952 39.1814C298.464 33.9424 291.554 31.2803 284.877 28.1563C284.313 27.8889 283.7 27.6701 283.088 27.585C278.469 26.88 273.826 26.2965 269.219 25.5064C266.707 25.081 264.281 24.0842 261.77 23.7925C257.224 23.2577 252.838 23.829 248.893 26.5153C247.925 27.1717 246.516 27.269 245.291 27.4513C236.972 28.7033 229.07 30.9035 223.655 37.9051C219.379 43.448 215.385 48.8936 215.005 56.6488C214.821 60.3684 214.442 65.2185 210.692 68.5126C209.296 69.7403 208.965 72.451 208.659 74.5661C207.813 80.4129 206.956 86.2961 206.686 92.1915C206.539 95.3155 207.446 98.5367 208.181 101.649C209.553 107.483 213.278 112.041 216.684 116.831C220.335 121.973 225.689 124.951 230.393 128.792C232.905 130.846 234.596 133.861 236.74 136.389C238.504 138.468 240.048 140.935 242.253 142.406C246.541 145.262 251.074 147.438 256.538 148.168C259.466 148.557 262.517 149.991 265.58 149.578C269.844 148.994 274.034 147.888 278.236 146.952C279.253 146.733 280.209 146.174 281.226 146.016C286.065 145.275 290.978 144.898 295.744 143.865C301.539 142.613 307.432 141.409 312.627 138.273C315.8 136.352 318.961 134.42 322.171 132.56C326.765 129.91 327.476 124.89 329.693 120.769C331.482 117.463 333.185 113.695 336.003 111.458C338.563 109.416 340.818 107.337 341.773 104.493C342.901 101.114 345.853 99.9954 348.279 98.7069C351.023 97.2482 354.454 96.8714 357.639 96.4581C366.473 95.2912 374.988 97.5886 383.294 99.9346C388.073 101.284 392.961 102.779 397.678 104.432C402.285 106.049 406.328 108.565 410.824 110.194C410.922 110.23 411.045 110.23 411.118 110.291C414.659 113.439 418.396 116.405 421.655 119.821C423.688 121.948 422.402 124.489 419.498 125.182C417.219 125.729 414.953 126.373 412.723 127.066C410.322 127.819 408.08 127.734 405.507 127.515C399.626 127.029 393.635 127.807 387.693 128.038C384.017 128.184 380.33 128.075 376.679 128.415C372.011 128.853 367.367 129.558 362.736 130.299C361.94 130.421 361.266 131.284 360.543 131.794C358.644 133.131 356.917 135.113 354.809 135.647C350.288 136.802 346.466 138.565 343.599 142.394C342.313 144.12 340.634 145.785 338.76 146.794C332.107 150.392 330.771 155.801 332.327 162.657C333.05 165.866 333.491 169.209 333.479 172.479C333.442 179.906 335.856 186.008 340.659 191.903C345.094 197.337 351.244 198.394 356.868 201.068C362.785 203.888 368.972 202.928 375.098 202.831C376.936 202.807 378.786 201.713 380.599 201.773C388.232 202.053 395.852 202.491 403.461 203.086C405.776 203.269 408.337 205.141 410.273 204.557C421.042 201.263 432.007 203.658 442.838 202.989C444.651 202.88 446.525 203.597 448.351 203.961C448.853 204.059 449.405 204.545 449.821 204.435C456.351 202.758 462.759 205.335 469.314 204.982C475.832 204.63 482.362 206.247 488.696 208.204C490.95 208.897 493.572 208.666 495.692 209.589C502.724 212.689 505.505 219.484 509.107 225.55C510.847 228.479 511.08 231.579 511.031 234.861C510.859 246.044 514.143 257.045 512.954 268.288C516.752 279.787 513.714 291.651 514.89 303.272C515.662 310.845 517.107 318.357 518.235 325.905C518.418 327.133 518.541 328.397 518.553 329.637C518.59 335.375 518.186 341.161 518.676 346.862C519.399 355.48 509.707 363.502 501.964 363.575C495.52 363.636 491.636 361.156 489.076 355.735C486.491 350.253 483.036 344.917 483.905 338.547C484.604 333.418 486.049 328.397 487.115 323.316C487.373 322.101 487.483 320.861 487.569 319.621C488.255 309.362 488.206 298.993 489.762 288.88C491.465 277.818 490.987 266.793 490.485 255.841C490.105 247.6 488.255 239.115 480.769 233.378C476.701 230.266 472.597 228.102 467.206 227.847C461.754 227.592 456.388 225.987 450.936 225.258C448.388 224.918 445.729 225.1 443.156 225.355C440.473 225.623 437.815 226.631 435.144 226.644C428.111 226.668 421.066 226.242 414.034 226.157C411.424 226.121 408.79 226.741 406.193 226.644C404.049 226.571 401.929 225.866 399.785 225.477C398.989 225.331 398.094 225.003 397.372 225.209C392.655 226.583 388.06 228.43 383.27 229.452C377.94 230.582 372.476 231.348 367.036 231.603C364.182 231.737 361.266 230.084 358.35 229.938C353.082 229.67 351.857 231.105 351.832 236.332C351.832 239.152 351.697 241.984 351.857 244.792C352.261 251.939 353.082 259.062 353.229 266.21C353.413 275.448 353.56 284.735 352.861 293.924C352.273 301.716 349.798 309.277 349.749 317.239C349.713 322.174 348.781 327.133 347.863 332.008C347.029 336.408 345.645 340.711 344.493 345.05C344.444 345.257 344.395 345.464 344.383 345.67C343.697 351.845 343.17 358.045 342.3 364.207C341.565 369.434 340.144 374.564 339.605 379.803C339.201 383.681 339.666 387.655 339.887 391.569C339.997 393.527 340.413 395.471 340.708 397.416C341.406 402.133 342.3 406.837 342.729 411.577C342.986 414.446 342.043 417.461 342.472 420.281C343.256 425.435 344.138 430.686 345.939 435.548C348.389 442.185 351.906 448.421 354.601 454.96C356.353 459.191 357.235 463.761 358.938 468.015C360.555 472.039 362.552 475.941 364.684 479.721C367.453 484.656 370.516 489.421 373.469 494.247C376.617 499.401 376.581 508.116 368.396 512.432C367.747 512.772 367.012 512.979 366.424 513.392C361.401 516.917 359.281 517.124 354.503 513.222C350.729 510.146 346.662 507.022 345.155 502.087C343.966 498.198 343.305 494.15 342.312 490.187C341.247 485.957 340.23 481.715 338.882 477.57C336.395 469.948 331.261 463.178 331.507 454.644C331.531 453.648 330.539 452.651 330.147 451.606C328.15 446.208 325.981 440.86 324.278 435.378C322.918 430.99 315.898 424.584 311.303 424.171C307.358 423.818 303.279 427.295 303.23 431.184C303.168 435.779 302.985 440.386 303.303 444.956C303.499 447.655 304.136 450.512 305.361 452.906C307.812 457.708 308.216 462.862 308.878 467.991C309.429 472.185 309.711 476.427 310.189 480.633C310.728 485.337 305.643 487.452 301.551 485.446C300.301 484.839 298.831 484.438 297.435 484.352C293.502 484.109 290.586 481.52 289.973 477.655C289.005 471.626 288.417 465.487 286.776 459.64C284.754 452.42 285.048 445.151 284.705 437.846C284.57 434.892 283.333 431.889 282.144 429.106C281.213 426.942 278.787 426.711 276.95 427.538C275.896 428.012 275.308 429.786 274.818 431.099C274.205 432.716 273.85 434.442 273.519 436.144C273.041 438.575 272.355 441.042 272.343 443.486C272.319 448.798 272.711 454.11 272.845 459.422C272.956 463.737 272.723 467.93 274.72 472.136C278.273 479.624 277.648 487.817 278.089 495.888C278.567 504.749 274.904 511.082 268.521 516.419C265.053 519.312 260.434 519.105 257.188 517.403C254.002 515.738 250.094 514.377 248.256 510.061C246.504 505.953 246.994 502.209 247.497 498.246C247.827 495.706 248.636 493.214 248.783 490.673C249.016 486.613 247.901 482.213 249.114 478.53C252.079 469.559 250.756 460.516 250.486 451.581C250.265 443.923 248.268 436.302 246.7 428.729C246.467 427.611 244.348 426.346 242.939 426.103C235.269 424.754 229.805 430.868 227.869 437.906C225.346 447.084 226.571 456.334 226.056 465.56C225.958 467.286 225.186 469.146 224.231 470.641C221.302 475.26 218.068 479.697 215.079 484.28C213.694 486.407 209.896 488.546 207.654 487.902C204.628 487.039 203.795 484.741 203.954 481.824C204.077 479.636 204.089 477.436 203.954 475.248C203.746 472.027 203.942 468.964 202.594 465.633C201.259 462.339 201.81 457.926 202.631 454.243C203.562 450.098 205.951 446.294 207.274 442.197C209.186 436.29 210.496 430.212 209.529 423.952C209.039 420.803 206.38 419.965 203.942 421.995C202.239 423.417 200.364 424.657 198.796 426.213C195.513 429.458 195.084 433.931 193.785 438.064C192.229 443.024 190.306 447.862 188.701 452.809C187.966 455.07 187.659 457.452 187.01 459.738C185.307 465.718 183.445 471.662 181.815 477.667C180.835 481.301 179.879 484.997 179.463 488.728C178.887 493.919 172.565 501.115 167.26 501.552C165.263 501.723 163.119 501.054 161.159 500.398C157.741 499.243 154.359 497.942 151.088 496.423C148.282 495.11 147.51 489.446 149.079 485.981C150.377 483.113 150.782 479.806 152.313 477.108C154.322 473.571 156.748 470.118 159.591 467.213C162.409 464.344 164.136 461.257 164.957 457.379C165.459 454.973 166.721 452.736 167.542 450.402C169.012 446.245 170.237 441.978 171.879 437.894C176.535 426.298 175.481 414.154 175.567 402.12C175.591 398.887 175.346 395.629 175.604 392.408C176.008 387.461 174.219 383.146 172.357 378.77C171.855 377.579 171.904 376.132 171.757 374.807C171.303 370.443 172.553 366.019 170.188 361.679C169.257 359.953 170.446 357.096 170.642 354.75C170.764 353.219 171.316 351.505 170.813 350.204C169.956 347.992 169.674 346.12 170.923 343.969C171.512 342.96 171.659 341.598 171.695 340.383C171.793 337.04 171.585 333.697 171.781 330.367C172.038 325.991 170.617 321.396 173.435 317.299C173.839 316.704 173.594 315.671 173.607 314.832C173.631 311.489 173.803 308.134 173.607 304.803C173.08 296.355 175.359 288.272 176.633 280.043C176.841 278.706 176.731 277.332 176.841 275.983C177.527 267.498 177.368 258.831 179.193 250.59C180.651 244.002 180.394 237.571 180.541 231.068C180.59 229.099 179.781 227.045 179.12 225.124C178.176 222.389 176.192 222.73 173.999 223.605C172.59 224.176 171.095 224.735 169.6 224.808C166.035 224.978 162.445 224.808 158.868 224.857C154.812 224.918 150.635 224.2 146.849 226.425C146.592 226.571 146.236 226.595 145.93 226.619C139.988 227.081 134.058 227.689 128.116 227.944C122.591 228.187 117.543 226.692 112.703 223.824C110.057 222.255 106.651 221.49 103.527 221.271C91.0424 220.396 78.5456 219.812 66.0489 219.265C60.2049 219.01 54.3363 219.837 48.6025 217.721C45.6621 216.64 43.2362 217.855 41.4107 220.687C39.7078 223.349 37.3799 225.623 35.3829 228.114C34.8806 228.746 34.4518 229.524 34.268 230.29C33.0673 235.165 32.1852 240.124 30.7028 244.913C29.4776 248.876 28.2647 252.632 30.2127 256.704C30.6292 257.567 30.323 258.771 30.3475 259.804C30.5557 267.304 30.666 274.816 31.0091 282.316C31.2786 288.211 31.6706 294.119 32.369 299.978C32.614 302.032 33.7167 304.098 34.8193 305.91C36.5223 308.718 36.216 311.173 34.9664 314.102C33.6309 317.251 32.9203 320.703 32.2955 324.094C31.6584 327.534 31.6216 331.084 30.96 334.512C30.715 335.812 29.5266 336.955 28.6812 338.122C26.9905 340.431 25.0915 342.619 23.5723 345.026C22.0898 347.372 20.1295 348.345 17.5934 347.153C16.209 346.497 15.0206 345.391 13.7832 344.43C11.0143 342.279 8.20864 340.164 5.55002 337.879C4.15333 336.675 3.02617 335.18 1.81325 333.782C1.16391 333.016 0.600333 332.178 0 331.363C0 325.93 0 320.508 0 315.075L0 315.063ZM190.134 323.766C191.139 329.734 188.529 337.186 191.862 344.333C193.222 347.25 193.577 350.666 194.214 353.9C195.231 359.066 196.309 364.244 197.007 369.459C197.877 375.95 199.715 382.003 205.449 385.723C209.48 388.336 214.025 390.147 216.782 394.377C217.027 394.754 217.651 394.9 218.093 395.155C221.057 396.869 224.267 398.279 226.938 400.37C231.827 404.187 237.548 405.524 243.368 405.755C248.991 405.974 254.737 406.946 260.324 404.211C264.441 402.193 269.341 401.756 273.446 399.738C279.939 396.541 286.616 394.317 293.747 393.271C294.335 393.186 294.862 392.639 295.45 392.566C296.663 392.42 298.047 392.08 299.076 392.505C301.514 393.527 304.675 392.518 306.145 390.403C307.567 388.348 309.466 386.61 311.205 384.787C312.039 383.911 313.117 383.255 313.84 382.319C317.54 377.603 319.475 372.084 321.007 366.383C321.656 363.989 322.636 361.679 323.433 359.321C324.854 355.115 327.108 350.982 327.5 346.691C328.333 337.623 327.243 328.47 329.473 319.402C330.808 313.981 329.032 308.268 331.151 302.555C332.891 297.863 332.585 292.344 332.756 287.178C332.989 280.006 332.817 272.822 332.817 265.651C332.817 260.351 333.001 255.039 332.768 249.751C332.572 245.108 332.058 240.452 331.408 235.845C330.992 232.94 330.11 230.084 329.362 227.227C328.725 224.772 328.297 222.195 327.243 219.922C324.155 213.297 320.835 206.781 317.478 200.29C316.964 199.294 315.959 198.321 314.942 197.835C309.845 195.428 304.626 193.277 299.53 190.882C296.148 189.29 293.048 186.992 289.557 185.813C284.35 184.051 278.91 182.969 273.568 181.62C269.782 180.659 266.033 179.48 262.186 178.836C259.883 178.459 257.42 178.8 255.056 179.079C253.255 179.298 251.515 180.27 249.726 180.295C245.316 180.368 240.881 180.1 236.813 182.215C233.321 184.039 229.45 185.449 226.509 187.928C220.714 192.803 215.446 198.309 209.933 203.536C206.417 206.879 203.807 210.44 204.518 215.777C204.934 218.937 204.897 222.328 204.199 225.416C202.79 231.652 200.646 237.717 199.078 243.929C197.534 250.043 196.37 256.242 194.986 262.405C193.344 269.759 191.408 277.04 191.923 284.723C192.229 289.293 191.984 293.9 191.96 298.495C191.96 299.431 192.192 300.598 191.727 301.266C189.264 304.779 190.281 308.718 190.146 312.498C190.024 315.829 190.122 319.183 190.122 323.778L190.134 323.766Z" fill="white"/>
<path d="M221.961 76.4349C222.586 68.0112 224.571 60.2803 230.219 53.7284C232.755 50.7747 234.237 46.9092 238.256 45.3168C242.679 43.5664 246.93 41.7917 251.782 40.8558C257.907 39.6645 264.413 40.6248 270.245 37.7804C271.286 37.2699 272.793 37.2942 273.969 37.5859C280.022 39.0811 286.197 40.3452 291.061 44.6604C296.978 49.9116 303.03 55.0291 308.764 60.4869C311.95 63.5136 314.902 66.905 317.377 70.5152C319.056 72.9828 319.889 76.0824 320.795 78.9997C321.567 81.5038 321.923 84.1294 322.413 86.7063C322.523 87.302 322.707 88.1285 322.413 88.5053C319.999 91.6779 320.869 95.3367 320.881 98.7889C320.906 105.778 318.553 111.528 312.918 115.855C312.256 116.366 311.631 116.961 311.129 117.618C307.711 122.115 302.785 123.878 297.566 125.288C295.606 125.811 293.756 126.941 292.004 128.023C287.079 131.074 282.362 134.405 276.077 134.161C274.447 134.101 272.818 135.511 271.115 135.766C266.778 136.41 262.931 134.903 259.206 132.788C256.498 131.256 253.644 129.968 250.801 128.716C247.739 127.367 245.251 125.166 242.519 123.44C236.589 119.721 233.294 114.178 230.072 108.586C227.67 104.405 224.852 100.369 225.232 94.8384C225.502 90.7784 223.921 86.5969 223.149 82.4762C222.77 80.4584 222.365 78.4406 221.961 76.4228V76.4349ZM297.235 80.4584C298.019 74.5508 294.81 70.6975 289.995 68.2057C284.102 65.1668 277.976 62.602 271.874 59.9885C271.004 59.6117 269.657 59.9642 268.652 60.3167C263.078 62.2616 257.601 64.4861 251.965 66.2486C248.78 67.2454 245.925 70.3936 245.631 73.7364C245.313 77.3709 246.856 81.2607 244.235 84.6277C244.039 84.8709 244.161 85.43 244.259 85.819C245.325 90.0369 246.881 94.1941 247.395 98.485C248.02 103.542 249.981 108.015 253.105 111.662C256.4 115.515 259.561 120.462 266.006 119.478C268.689 119.064 271.335 117.156 274.055 119.392C274.165 119.49 274.496 119.429 274.668 119.344C278.882 117.144 283.366 115.333 286.356 111.333C288.341 108.683 290.472 106.143 292.433 103.481C293.535 101.986 295.042 100.43 295.287 98.7524C296.182 92.699 296.623 86.5726 297.235 80.4706V80.4584Z" fill="white"/>
<path d="M467.979 322.393C467.979 333.746 468.334 342.85 467.795 351.906C467.587 355.407 465.455 358.811 464.022 362.19C463.789 362.749 462.686 363.15 461.927 363.272C455.666 364.293 448.989 360.707 446.306 354.872C443.512 348.782 444.125 342.255 444.064 335.849C443.941 322.83 444.983 309.702 443.66 296.805C442.153 282.097 443.267 267.462 442.728 252.802C442.679 251.429 443.635 249.958 444.346 248.645C445.559 246.384 446.808 244.136 448.278 242.045C449.638 240.112 451.047 238.07 452.885 236.636C455.054 234.946 457.467 236.417 459.084 237.827C462.65 240.939 464.745 244.853 464.855 249.836C465.149 263.341 464.304 277.089 466.558 290.29C468.53 301.886 466.68 313.276 467.979 322.405V322.393Z" fill="white"/>
<path d="M404.784 327.577C404.784 323.505 404.527 319.408 404.845 315.361C405.396 308.31 404.184 301.771 400.533 295.632C399.846 294.477 399.773 292.824 399.761 291.414C399.712 278.991 399.712 266.568 399.785 254.145C399.822 248.141 402.554 243.449 407.871 240.726C414.647 237.249 419.903 239.984 423.235 247.217C426.273 253.805 424.705 260.491 424.828 267.14C424.877 269.911 423.541 272.695 423.259 275.503C423.125 276.925 424.154 278.42 424.289 279.915C424.509 282.443 424.619 285.008 424.436 287.524C424.313 289.202 423.223 290.843 423.21 292.496C423.112 304.396 423.039 316.297 423.259 328.197C423.321 331.515 424.95 334.834 424.852 338.128C424.754 341.519 423.615 344.923 422.598 348.217C421.9 350.466 420.601 352.52 419.584 354.672C417.599 358.865 413.372 359.594 409.783 356.689C406.107 353.711 404.282 350.344 404.674 345.409C405.139 339.489 404.784 333.521 404.784 327.565V327.577Z" fill="white"/>
<path d="M382.094 267.554C382.094 269.535 382.241 271.529 382.07 273.498C381.482 280.281 381.8 287.367 379.816 293.737C378.015 299.486 379.325 305.102 378.174 310.56C377.022 316.042 376.042 321.476 376.532 327.043C376.924 331.504 377.941 335.916 378.26 340.377C378.835 348.4 373.2 351.84 366.008 350.758C363.57 350.394 362.038 348.874 361.916 346.358C361.793 343.854 361.707 341.338 361.867 338.846C362.296 332.148 359.735 325.925 358.877 319.446C357.824 311.423 357.076 303.388 359.318 295.329C359.894 293.251 358.694 290.734 358.608 288.4C358.375 282.153 357.738 275.856 358.302 269.681C358.89 263.263 360.593 256.942 362.124 250.645C362.43 249.381 364.035 248.251 365.31 247.461C367.147 246.306 369.206 245.516 371.19 244.592C374.253 243.17 378.211 244.531 380.134 247.388C381.715 249.746 382.266 252.214 382.168 255.009C382.009 259.179 382.131 263.348 382.131 267.529H382.119L382.094 267.554Z" fill="white"/>
<path d="M126.257 255.878C125.558 258.43 124.811 260.958 124.174 263.523C123.929 264.52 123.843 265.578 123.831 266.611C123.782 270.476 123.978 274.342 123.745 278.195C123.218 286.935 122.74 295.699 121.772 304.402C120.841 312.729 119.273 320.982 118.072 329.272C117.558 332.846 117.423 336.481 116.725 340.018C116.455 341.391 115.046 343.665 114.323 343.592C112.706 343.446 109.962 342.23 109.852 341.221C109.447 337.38 105.907 335.618 104.767 332.481C103.383 328.677 101.9 324.994 103.064 320.533C104.032 316.801 103.689 312.656 103.517 308.705C103.223 301.667 102.599 294.641 102.17 287.603C102.084 286.169 101.974 284.637 102.354 283.276C104.657 275.083 103.444 266.732 103.566 258.454C103.652 252.741 103.187 246.98 105.747 241.728C106.691 239.808 108.7 238.252 110.513 236.939C112.339 235.626 114.581 234.897 116.566 233.754C119.163 232.272 120.964 232.685 122.067 235.602C122.912 237.851 123.341 240.27 123.794 242.64C124.492 246.348 125.08 250.079 125.669 253.811C125.767 254.419 125.681 255.063 125.681 255.683C125.877 255.732 126.061 255.792 126.257 255.841V255.878Z" fill="white"/>
<path d="M53.5781 321.449C54.644 314.374 55.6119 308.041 56.5308 301.696C56.6778 300.687 56.8616 299.557 56.5675 298.621C55.0116 293.698 55.4036 288.92 56.494 283.912C57.6947 278.394 58.295 272.705 58.6381 267.053C58.9934 261.364 58.9444 255.614 58.6136 249.913C58.4421 246.887 56.9841 244.079 58.5523 240.87C60.5984 236.664 62.6444 232.397 62.7669 227.487C62.7914 226.478 64.5066 225.201 65.7073 224.691C66.1974 224.484 67.4103 226.028 68.3292 226.721C69.7626 227.79 71.0858 229.383 72.703 229.747C77.567 230.854 80.3726 235.983 78.4123 240.566C77.7017 242.231 77.3709 244.103 77.1504 245.902C76.9421 247.652 77.1749 249.452 77.0769 251.214C76.5623 260.428 75.962 269.642 75.4964 278.856C75.3862 280.922 75.8027 283.001 75.766 285.079C75.6189 291.85 76.011 298.706 74.9818 305.355C73.8669 312.551 71.7229 319.65 69.3828 326.566C68.3292 329.666 65.9033 332.401 63.7103 334.978C62.8159 336.023 60.6841 336.935 59.5079 336.594C58.3685 336.266 57.4374 334.346 56.9106 332.948C55.9427 330.334 55.3546 327.599 54.595 324.913C54.203 323.539 53.7864 322.166 53.5781 321.449Z" fill="white"/>
<path d="M143.335 311.018C143.335 310.495 143.298 309.973 143.335 309.45C143.751 303.044 144.18 296.65 144.596 290.244C144.817 286.817 145.197 283.389 145.221 279.961C145.307 269.422 145.234 258.895 145.246 248.357C145.246 243.239 148.358 239.556 153.442 238.535C153.846 238.45 154.275 238.377 154.655 238.219C160.034 235.946 160.23 235.8 163.648 240.419C165.645 243.117 167.899 246.254 168.23 249.378C168.598 252.684 166.846 256.233 165.976 259.661C165.657 260.937 164.959 262.165 164.922 263.441C164.775 268.024 165.155 272.643 164.738 277.202C164.383 281.067 163.207 284.859 162.361 288.676C161.541 292.396 160.94 296.188 159.752 299.786C156.726 308.927 158.514 318.324 157.755 327.574C157.51 330.516 156.677 334.004 154.802 336.083C151.433 339.839 145.969 337.821 144.89 332.679C144.07 328.753 143.678 324.717 143.384 320.706C143.151 317.485 143.335 314.239 143.335 311.006V311.018Z" fill="white"/>
<path d="M261.437 384.694C258.803 384.694 256.157 384.463 253.547 384.742C247.091 385.435 241.381 382.907 235.745 380.573C231.176 378.677 226.569 376.331 222.795 373.207C219.157 370.204 216.106 366.23 213.594 362.206C210.715 357.575 208.706 352.409 206.341 347.461C206.158 347.085 206.011 346.684 205.974 346.27C205.508 341.53 204.626 336.777 204.7 332.048C204.847 321.449 204.32 310.655 206.256 300.335C207.738 292.421 206.684 284.618 207.885 276.923C209.649 265.752 212.161 254.691 214.366 243.581C215.101 239.873 215.873 236.19 216.633 232.483C216.719 232.069 216.67 231.595 216.866 231.267C218.863 227.839 220.651 224.253 222.979 221.056C226.912 215.635 231.09 210.384 235.366 205.23C237.424 202.75 239.678 200.222 242.361 198.532C245.363 196.648 248.879 195.445 252.31 194.412C255.74 193.378 259.747 193.646 262.797 192.041C267.392 189.61 271.41 190.947 275.551 192.345C278.173 193.232 280.587 194.74 283.098 195.967C286.749 197.754 290.596 199.249 294.002 201.425C296.159 202.811 297.506 205.376 299.516 207.078C301.525 208.779 303.889 210.044 306.095 211.514C309.011 213.447 312.025 215.27 314.806 217.373C317.807 219.646 318.934 223.147 319.412 226.636C320.16 232.069 320.135 237.6 320.956 243.009C321.569 247.093 322.99 251.068 324.043 255.092C324.252 255.894 324.46 256.696 324.57 257.511C325.269 263.017 326.016 268.524 326.592 274.054C327.278 280.655 328.43 287.292 328.185 293.868C327.952 299.994 326.138 306.06 325.024 312.15C324.84 313.171 324.546 314.216 324.632 315.225C324.95 319.236 322.831 322.506 321.532 326.031C321.079 327.271 321.066 328.669 320.662 329.933C319.412 333.774 318.04 337.579 316.754 341.408C315.749 344.423 314.855 347.474 313.813 350.476C313.237 352.117 312.821 354.025 311.694 355.217C309.011 358.049 308.275 361.452 307.565 365.051C306.499 370.362 302.15 373.389 297.96 375.589C291.246 379.114 284.115 382.202 276.801 384.159C271.998 385.447 266.571 384.402 261.425 384.402C261.425 384.499 261.425 384.609 261.425 384.706L261.437 384.694ZM282.388 218.589L282.767 217.531C280.378 216.425 278.075 215.076 275.588 214.274C272.464 213.265 268.85 213.301 266.044 211.794C260.457 208.779 255.973 212.304 251.072 213.374C249.908 213.629 248.499 214.225 247.85 215.125C244.689 219.428 241.528 223.767 238.784 228.35C236.958 231.401 236.346 235.23 234.263 238.038C231.298 242.061 230.489 246.595 229.963 251.141C229.301 256.818 229.497 262.58 229.228 268.305C229.154 269.836 228.725 271.344 228.431 272.863C227.034 280.229 224.915 287.547 224.425 294.974C223.727 305.367 224.241 315.845 224.266 326.274C224.266 327.089 224.364 327.964 224.67 328.718C226.054 332.146 227.953 335.428 228.86 338.977C230.428 345.115 233.356 349.735 239.568 352.141C241.639 352.944 243.28 354.803 245.142 356.153C248.928 358.912 252.775 361.331 257.786 361.525C261.192 361.659 264.586 362.559 267.967 363.154C270.981 363.689 273.505 362.96 275.747 360.796C277.119 359.471 278.896 358.559 280.354 357.307C281.91 355.97 283.368 354.5 284.74 352.98C286.382 351.157 287.582 348.799 289.518 347.413C293.194 344.787 296.416 342.344 297.874 337.555C299.822 331.173 302.174 324.962 302.64 318.228C302.762 316.465 303.069 314.702 303.387 312.964C304.735 305.768 306.867 298.718 306.352 291.23C306.009 286.246 306.315 281.214 306.217 276.206C306.193 274.893 305.727 273.592 305.47 272.28C305.164 270.687 304.6 269.083 304.612 267.49C304.698 260.866 304.919 254.314 302.615 247.835C300.692 242.438 297.359 238.925 291.932 237.503C284.323 235.497 278.087 238.597 272.378 243.179C271.251 244.079 269.879 245.088 269.425 246.328C267.404 251.786 263.863 256.222 260.322 260.683C257.97 263.649 256.12 266.81 256.402 270.809C256.463 271.623 256.341 272.486 256.12 273.276C254.576 279.05 252.849 284.763 251.513 290.574C251.06 292.531 251.342 294.755 251.722 296.773C252.53 301.137 253.474 305.501 254.65 309.779C255.128 311.506 256.255 314.313 257.284 314.399C262.111 314.8 267 314.459 271.876 314.277C272.341 314.265 272.978 313.535 273.199 313.001C275.22 307.944 277.744 302.997 278.945 297.745C279.876 293.673 279.214 289.224 279.08 284.946C279.043 283.961 278.332 282.247 277.806 282.199C276.629 282.089 274.902 282.442 274.228 283.28C272.243 285.748 270.871 288.69 268.85 291.121C267.502 292.75 265.468 294.889 263.741 294.889C261.143 294.889 259.452 292.956 259.416 289.577C259.367 284.338 260.604 279.597 263.128 275.124C266.791 268.645 274.4 262.118 283.111 263.589C288.82 264.549 296.257 272.389 296.159 278.175C296.11 281.287 295.203 284.532 295.779 287.498C297.42 295.922 295.203 303.446 291.552 310.849C290.658 312.66 290.67 314.946 289.665 316.659C286.921 321.327 283.441 325.375 279.41 329.131C274.743 333.471 265.162 334.406 259.796 331.963C257.137 330.748 254.098 329.569 251.268 329.642C242.227 329.86 238.784 324.354 238.098 316.465C237.853 313.681 238.073 310.776 237.326 308.151C235.072 300.213 234.827 291.753 236.86 284.374C239.507 274.784 241.528 265.388 241.982 255.481C242.214 250.4 243.513 245.149 247.483 241.429C250.705 238.402 254.344 235.765 258.007 233.248C263.802 229.274 269.732 225.469 275.698 221.749C277.781 220.461 280.146 219.634 282.388 218.589Z" fill="white"/>
<path d="M271.746 72.6861C273.816 73.2088 276.499 73.0994 277.823 74.3878C281.131 77.5604 286.031 79.5539 286.877 84.7565C287.109 86.1787 286.864 87.9291 286.203 89.2054C284.071 93.3383 281.829 97.4468 279.244 101.312C278.398 102.576 276.475 103.634 274.919 103.828C266.539 104.874 261.271 100.06 257.362 93.63C253.797 87.771 254.679 82.5077 260.009 78.0588C263.255 75.3481 266.527 71.8716 271.746 72.6982V72.6861Z" fill="#418DC3"/>
</g>
<defs>
<filter id="filter0_in_4940_825" x="0" y="0" width="518.711" height="525.213" filterUnits="userSpaceOnUse" color-interpolation-filters="sRGB">
<feFlood flood-opacity="0" result="BackgroundImageFix"/>
<feBlend mode="normal" in="SourceGraphic" in2="BackgroundImageFix" result="shape"/>
<feColorMatrix in="SourceAlpha" type="matrix" values="0 0 0 0 0 0 0 0 0 0 0 0 0 0 0 0 0 0 127 0" result="hardAlpha"/>
<feOffset dy="6.56505"/>
<feGaussianBlur stdDeviation="3.28253"/>
<feComposite in2="hardAlpha" operator="arithmetic" k2="-1" k3="1"/>
<feColorMatrix type="matrix" values="0 0 0 0 1 0 0 0 0 1 0 0 0 0 1 0 0 0 0.3 0"/>
<feBlend mode="normal" in2="shape" result="effect1_innerShadow_4940_825"/>
<feTurbulence type="fractalNoise" baseFrequency="2 2" stitchTiles="stitch" numOctaves="3" result="noise" seed="8486" />
<feColorMatrix in="noise" type="luminanceToAlpha" result="alphaNoise" />
<feComponentTransfer in="alphaNoise" result="coloredNoise1">
<feFuncA type="discrete" tableValues="0 0 1 1 1 1 1 1 1 1 1 1 1 1 1 1 1 1 1 1 1 1 1 1 1 1 1 1 1 1 1 1 1 1 1 1 1 1 1 1 1 1 1 1 1 1 1 1 0 0 0 0 0 0 0 0 0 0 0 0 0 0 0 0 0 0 0 0 0 0 0 0 0 0 0 0 0 0 0 0 0 0 0 0 0 0 0 0 0 0 0 0 0 0 0 0 0 0 0 0 "/>
</feComponentTransfer>
<feComposite operator="in" in2="effect1_innerShadow_4940_825" in="coloredNoise1" result="noise1Clipped" />
<feComponentTransfer in="alphaNoise" result="coloredNoise2">
<feFuncA type="discrete" tableValues="0 0 0 0 0 0 0 0 0 0 0 0 0 0 0 0 0 0 0 0 0 0 0 0 0 0 0 0 0 0 0 0 0 0 0 0 0 0 0 0 0 0 0 0 0 0 0 0 0 0 0 0 1 1 1 1 1 1 1 1 1 1 1 1 1 1 1 1 1 1 1 1 1 1 1 1 1 1 1 1 1 1 1 1 1 1 1 1 1 1 1 1 1 1 1 1 1 1 0 0 "/>
</feComponentTransfer>
<feComposite operator="in" in2="effect1_innerShadow_4940_825" in="coloredNoise2" result="noise2Clipped" />
<feFlood flood-color="rgba(0, 0, 0, 0.35)" result="color1Flood" />
<feComposite operator="in" in2="noise1Clipped" in="color1Flood" result="color1" />
<feFlood flood-color="rgba(51, 51, 51, 0.25)" result="color2Flood" />
<feComposite operator="in" in2="noise2Clipped" in="color2Flood" result="color2" />
<feMerge result="effect2_noise_4940_825">
<feMergeNode in="effect1_innerShadow_4940_825" />
<feMergeNode in="color1" />
<feMergeNode in="color2" />
</feMerge>
</filter>
</defs>
</svg>
